<svg xmlns="http://www.w3.org/2000/svg" viewBox="0 0 202.94 311.08"><defs><style>.cls-1{fill:#222831;}.cls-2{fill:#020202;}.cls-3{fill:#1e0333;}.cls-4{fill:#353534;}.cls-5{fill:#36145e;}.cls-6{fill:#14ffec;}.cls-7{fill:#30054c;}.cls-8{fill:#18b5a5;}.cls-9{fill:#fff;}.cls-10{fill:none;}.cls-11{opacity:0.82;}.cls-12{fill:#45046a;}.cls-13{fill:#3c126d;}.cls-14{fill:#2de0c6;}.cls-15{fill:#21aa93;}.cls-16{opacity:0.7;}.cls-17{opacity:0.8;}.cls-18{opacity:0.47;}.cls-19{opacity:0.22;}</style></defs><title>Astro</title><g id="Capa_2" data-name="Capa 2"><g id="Capa_3" data-name="Capa 3"><path class="cls-1" d="M35,144.05,30.36,159c-.91,2.3-2.58,3.31-5,2.65l-4.16-1.15a10.06,10.06,0,0,1-2.15-.79,4,4,0,0,1-2-3.08c-.13-2,.9-4.28,1.46-6.1.81-2.69,1.69-5.36,2.59-8,.78-2.27,2.05-5.13,5-4.38q3.18.81,6.27,1.92A3.62,3.62,0,0,1,35,144.05Z"/><path class="cls-2" d="M26.75,162a5.32,5.32,0,0,1-1.43-.21l-4.16-1.15a10.14,10.14,0,0,1-2.21-.81,4.23,4.23,0,0,1-2.14-3.24,13.45,13.45,0,0,1,1-4.85c.16-.47.31-.91.44-1.33.7-2.33,1.51-4.81,2.6-8,.54-1.62,1.83-5.39,5.26-4.52,2.12.54,4.23,1.18,6.29,1.93a3.84,3.84,0,0,1,2.76,4.28v0L30.55,159C29.77,161,28.47,162,26.75,162Zm-1.59-23.84c-2.1,0-3.14,2.16-3.89,4.36-1.09,3.21-1.89,5.68-2.59,8-.13.43-.28.87-.45,1.34a13.22,13.22,0,0,0-1,4.69,3.8,3.8,0,0,0,1.93,2.91,9.16,9.16,0,0,0,2.11.76l4.16,1.16c2.23.62,3.82-.23,4.73-2.52L34.78,144a3.43,3.43,0,0,0-2.49-3.8c-2.05-.74-4.15-1.38-6.26-1.92A3.46,3.46,0,0,0,25.16,138.17Z"/><path class="cls-1" d="M46.16,133l-.84,11.27a2.68,2.68,0,0,1-3.24,2.52l-3.29-.31a8,8,0,0,1-1.74-.29,3.3,3.3,0,0,1-2-2c-.44-1.38-.07-3.18,0-4.55.14-2,.33-4.06.53-6.08.18-1.73.63-3.94,3-3.77,1.67.12,3.34.32,5,.6A2.89,2.89,0,0,1,46.16,133Z"/><path class="cls-2" d="M42.54,147a3.93,3.93,0,0,1-.48,0l-3.29-.31a7.89,7.89,0,0,1-1.78-.3,3.46,3.46,0,0,1-2.18-2.09,9.26,9.26,0,0,1-.09-3.64c0-.35.07-.69.09-1,.12-1.76.29-3.64.54-6.08.12-1.25.42-4.16,3.18-4,1.67.12,3.35.33,5,.6A3.11,3.11,0,0,1,46.37,133h0l-.84,11.29A2.82,2.82,0,0,1,42.54,147Zm-4.28-17c-1.87,0-2.32,1.8-2.5,3.59-.25,2.44-.41,4.31-.53,6.07,0,.32-.06.66-.09,1a9.11,9.11,0,0,0,.06,3.46A3.05,3.05,0,0,0,37.12,146a8.08,8.08,0,0,0,1.69.29l3.29.31a2.5,2.5,0,0,0,3-2.34L46,133a2.72,2.72,0,0,0-2.48-2.37c-1.64-.27-3.32-.47-5-.59Z"/><path class="cls-1" d="M10,230.93l10.33-.25a2.49,2.49,0,0,1,2.64,2.66l.07,3a7,7,0,0,1-.08,1.58,2.85,2.85,0,0,1-1.56,2c-1.34.57-11.39.45-11.39.45A2.45,2.45,0,0,1,7.9,238c-.07-1.5-.06-3,0-4.51A2.57,2.57,0,0,1,10,230.93Z"/><path d="M12.21,240.55c-1.23,0-2.11,0-2.23,0H9.93A2.63,2.63,0,0,1,7.69,238c-.06-1.49-.06-3,0-4.52a2.77,2.77,0,0,1,2.24-2.79h0l10.35-.25h0a2.7,2.7,0,0,1,2.84,2.86l.07,3a6.81,6.81,0,0,1-.09,1.62,3,3,0,0,1-1.68,2.15C20.48,240.48,15.27,240.55,12.21,240.55Zm-2.2-.43c2.81,0,10.22,0,11.28-.44a2.63,2.63,0,0,0,1.44-1.84,7.14,7.14,0,0,0,.07-1.53l-.07-3a2.28,2.28,0,0,0-2.43-2.46L10,231.14a2.38,2.38,0,0,0-1.86,2.4c-.07,1.49-.08,3,0,4.49A2.22,2.22,0,0,0,10,240.12Z"/><path class="cls-3" d="M66,10.68a10.64,10.64,0,0,1,.17,1.86l2-1.09L68,10.16l-2,.37Z"/><path class="cls-4" d="M142.14,127.18c-1.11.2-1.71,2-1.34,4s1.58,3.48,2.69,3.27,1.71-2,1.34-4S143.25,127,142.14,127.18Zm1.09,5.88c-.3.06-.73-.9-1-2.14s-.17-2.28.13-2.33.73.9,1,2.13S143.53,133,143.23,133.06Z"/><path d="M143.28,134.7a2.1,2.1,0,0,1-1.57-.9,5.83,5.83,0,0,1-1.12-2.56c-.4-2.16.27-4,1.51-4.27a2,2,0,0,1,1.82.88,5.61,5.61,0,0,1,1.11,2.56c.4,2.16-.26,4-1.5,4.27Zm-1.14-7.52,0,.2c-1,.18-1.52,1.91-1.18,3.78a5.31,5.31,0,0,0,1,2.37,1.55,1.55,0,0,0,1.42.73c1-.18,1.52-1.91,1.17-3.77a5.4,5.4,0,0,0-1-2.38,1.6,1.6,0,0,0-1.42-.73Zm1.06,6.09c-.69,0-1.09-2.06-1.14-2.31s-.43-2.44.3-2.58,1.16,2.06,1.2,2.31.43,2.44-.29,2.58h-.07Zm-.76-4.46a4.43,4.43,0,0,0,0,2.08,4.11,4.11,0,0,0,.71,2,4.43,4.43,0,0,0,0-2.08A4.35,4.35,0,0,0,142.44,128.81Z"/><path class="cls-5" d="M132.72,121.71s5.84,13.89,9.08,5.74c0,0,9.92,7.31,7.52,3s-2.19-4.7-2.19-4.7Z"/><path d="M149.32,132c-.54,0-1.63-.4-4.07-2-1.45-.92-2.84-1.92-3.36-2.29-.69,1.61-1.55,2.43-2.58,2.44h0c-3.18,0-6.62-8.09-6.77-8.43l-.17-.4,15.07,4.26-.09.19c0,.13.17,1,2.17,4.54.28.49.61,1.19.24,1.52A.65.65,0,0,1,149.32,132Zm-7.61-4.91.21.16s1.74,1.28,3.56,2.44c3.44,2.19,3.93,1.9,4,1.86s.15-.15-.32-1a24.16,24.16,0,0,1-2.21-4.64L133.09,122c.74,1.65,3.67,7.77,6.2,7.77h0c.89,0,1.66-.82,2.3-2.43Z"/><path class="cls-6" d="M134.8,292.28a9.67,9.67,0,0,0,10.27-.61c4.27-3.13,6-1,6-1l6.33,17.54-38,2.16,5-16.54Z"/><path d="M119.13,310.59l5.17-16.95,10.54-1.58.06,0a10.28,10.28,0,0,0,3.18,1.06A8.89,8.89,0,0,0,145,291.5c4.38-3.21,6.25-1.06,6.32-1l0,0v0l6.42,17.8ZM124.62,294l-4.92,16.13L157.15,308l-6.22-17.24c-.21-.22-1.9-1.75-5.73,1.06a9.4,9.4,0,0,1-7.2,1.74,10.11,10.11,0,0,1-3.24-1.08Z"/><path class="cls-7" d="M141.46,269.82c0-2.58.07-5.22.11-7.89.44-29.46,1.25-62.15,2.4-72.87,1.53-14.16.76-34.78-2.65-49.71-1.92-8.41-4.68-15-8.34-17.63-10.17-7.28-21.58-5.7-62.66-1.27S14.77,310.68,14.77,310.68l52.5.13H70.4s57.38-2.49,57.38-5.42v-.13c0-4.38,6.65-11.27,7.27-15.33s-1-9.92,4.25-16.17a11.35,11.35,0,0,0,1.41-2.1Z"/><path d="M70.24,311h0l-55.68-.13v-.23c0-.46,3.72-47,12.38-93.47C32,189.88,37.8,167.94,44.12,152c3.75-9.49,7.74-17,11.86-22.19,4.54-5.79,9.36-9,14.32-9.53l4.77-.51c18.46-2,30.65-3.31,39.26-3.24s13.79,1.49,18.77,5.06c1.79,1.27,3.44,3.54,4.9,6.72a57.78,57.78,0,0,1,3.53,11c3.21,14,4.3,34.5,2.65,49.77-1.39,12.89-2.14,55.24-2.4,72.86,0,2.61-.07,5.27-.11,7.88v0l-.78,1.9a10.59,10.59,0,0,1-1.43,2.13c-3.92,4.64-4,9.1-4,12.69a25.56,25.56,0,0,1-.18,3.38c-.29,1.9-1.82,4.32-3.44,6.9-1.88,3-3.83,6.08-3.83,8.4v.13c0,.34-.31.76-2.63,1.28-1.49.33-3.69.67-6.52,1-4.76.57-11.4,1.15-19.74,1.73-14.18,1-28.55,1.6-28.69,1.61ZM15,310.47l55.23.14h.17c.13,0,14.5-.63,28.68-1.61,8.32-.57,15-1.15,19.71-1.72,2.82-.34,5-.68,6.48-1,2.28-.5,2.31-.85,2.31-.87v-.13c0-2.44,2-5.59,3.89-8.63,1.59-2.53,3.1-4.92,3.37-6.74a22.85,22.85,0,0,0,.18-3.32c0-3.65.1-8.19,4.12-12.95a11.26,11.26,0,0,0,1.38-2l.74-1.8c0-2.61.07-5.25.1-7.85.26-17.62,1-60,2.41-72.9,1.64-15.22.55-35.63-2.65-49.63-2.07-9.07-4.93-15.13-8.26-17.51-4.91-3.51-10.1-4.91-18.53-5-8.59-.08-20.77,1.24-39.22,3.23l-4.77.52c-9.28,1-18,11.58-25.83,31.46C38.2,168.07,32.43,190,27.35,217.26,19,262.05,15.29,306.9,15,310.47Z"/><ellipse cx="28.49" cy="247.92" rx="4.02" ry="3.09" transform="translate(-221 253.46) rotate(-84.72)"/><path class="cls-8" d="M48.39,160.4s6.17,28.32,25,39.95l1.4-12.18S63.54,181.28,60.61,173s-7.52-23.18-7.52-23.18Z"/><path d="M73.58,200.7l-.28-.17a44.24,44.24,0,0,1-11.92-11.2,71.08,71.08,0,0,1-7.74-13.23,87.49,87.49,0,0,1-5.45-15.66v-.07l5-11.11.16.53c.05.15,4.63,15,7.52,23.17s14,15,14.11,15l.12.07Zm-25-40.28A87.23,87.23,0,0,0,54,175.93C57.54,183.62,63.71,194,73.24,200l1.35-11.72a52,52,0,0,1-5.92-4.43c-2.92-2.53-6.73-6.45-8.25-10.75-2.59-7.28-6.51-19.92-7.36-22.66Z"/><path class="cls-6" d="M79.18,292.24a.24.24,0,0,1,.07.21,19.54,19.54,0,0,1-.63,2.32c-1.55,4.63-5,11-7.14,14.69l0,0-.57,1a.28.28,0,0,1-.45,0c-3.78-4.44-9.6-14.25-11.75-17.95a8.39,8.39,0,0,0-1.94-2.27c-8.1-6.67-19.82-28.76-23.54-36a11.63,11.63,0,0,0-3.05-3.7,17.59,17.59,0,0,1-6.33-11l5.48,30.91a.28.28,0,0,1-.17.3l-16.06,5.93a.29.29,0,0,1-.33-.1c-1.95-3-1.83-7.3-1.86-10.77,0-1.93,0-3.86.11-5.78a25.47,25.47,0,0,0-.37-7.65,22.92,22.92,0,0,1-.25-8.09,30.92,30.92,0,0,1,.8-4.48c.42-1.53,1.33-3,1.21-4.62-.14-2.09-1.09-3.87-1-6a10.36,10.36,0,0,1,1.73-5.29c2.17-3.23,6-5,9.89-5.63a11,11,0,0,1,1.68-.15c5.44-.07,9.22,4,11.49,8.14a53.78,53.78,0,0,0,4.07,6.92c1.86,2.46,4,4.75,6,7.14s4.22,5,6.37,7.53l0,0c14,19.68,11.49,26.15,15.69,31.73C71.19,283.38,76.25,289,79.18,292.24Z"/><path d="M70.65,310.83a.5.5,0,0,1-.37-.17c-3.76-4.41-9.48-14-11.77-18a8.31,8.31,0,0,0-1.89-2.21c-8.18-6.74-20.13-29.33-23.6-36.09a11.26,11.26,0,0,0-3-3.64,17.93,17.93,0,0,1-5.25-7.05l4.73,26.73a.46.46,0,0,1-.3.53l-16,5.94a.5.5,0,0,1-.58-.19c-1.86-2.87-1.88-6.76-1.9-10.18v-.7c0-1.84,0-3.79.11-5.79l0-.63a23,23,0,0,0-.4-7,23.26,23.26,0,0,1-.25-8.17,31.31,31.31,0,0,1,.81-4.5c.14-.51.33-1,.51-1.49a7,7,0,0,0,.69-3.07,15,15,0,0,0-.47-2.54,11.55,11.55,0,0,1-.5-3.53A10.82,10.82,0,0,1,13,223.75c2.68-4,7.44-5.29,10-5.72a12.62,12.62,0,0,1,1.72-.15,10.86,10.86,0,0,1,7.06,2.54,18.75,18.75,0,0,1,4.61,5.71c.31.56.62,1.13.91,1.68A36.58,36.58,0,0,0,40.44,233c1.22,1.6,2.56,3.16,3.86,4.67.69.8,1.41,1.63,2.1,2.46,2.27,2.73,4.35,5.2,6.37,7.53l0,0c9,12.64,11.23,20,12.71,24.86.87,2.84,1.49,4.89,3,6.87,2.88,3.82,8,9.56,10.85,12.64h0a.46.46,0,0,1,.11.4,18.08,18.08,0,0,1-.64,2.35c-1.57,4.71-5.15,11.25-7.15,14.72v0l-.58,1a.49.49,0,0,1-.37.24ZM24.24,240.67a17.8,17.8,0,0,0,6.05,9.75,11.6,11.6,0,0,1,3.1,3.77c3.46,6.74,15.38,29.27,23.5,36a8.6,8.6,0,0,1,2,2.32c2.28,3.93,8,13.54,11.73,17.92a.08.08,0,0,0,.06,0,0,0,0,0,0,0,0l.57-1,0,0c2-3.46,5.55-10,7.12-14.65a16.7,16.7,0,0,0,.62-2.29s0,0,0,0c-2.82-3.09-8-8.85-10.87-12.68-1.54-2-2.2-4.22-3-7-1.56-5.14-3.71-12.16-12.65-24.75-2-2.34-4.11-4.81-6.38-7.54-.69-.83-1.41-1.66-2.1-2.46-1.3-1.51-2.65-3.07-3.87-4.69A37,37,0,0,1,36.93,228c-.29-.55-.59-1.12-.9-1.68-1.66-3-5.3-8-11.17-8h-.13a11.62,11.62,0,0,0-1.66.14c-2.53.42-7.16,1.69-9.75,5.55a10.19,10.19,0,0,0-1.69,5.18,11.1,11.1,0,0,0,.48,3.4,14.47,14.47,0,0,1,.49,2.62,7.52,7.52,0,0,1-.72,3.24,14.59,14.59,0,0,0-.5,1.45,30.45,30.45,0,0,0-.79,4.44,22.66,22.66,0,0,0,.24,8,23.31,23.31,0,0,1,.4,7.08c0,.2,0,.41,0,.62-.09,2-.13,3.94-.11,5.78v.7c0,3.36,0,7.18,1.83,10a.05.05,0,0,0,.08,0l16-5.93s.05,0,0-.06l-5.27-29.77c-.16-.71-.2-1.15-.21-1.16l.42-.06Z"/><path class="cls-9" d="M119.19,116.72c-2-.43-4.2-.8-6.63-1.11A43.9,43.9,0,0,1,119.19,116.72Z"/><path d="M119.17,116.77c-2-.44-4.27-.81-6.62-1.11v-.1a45.31,45.31,0,0,1,6.64,1.1Z"/><path class="cls-1" d="M142,67.21c0,.91,0,1.83-.06,2.73-.05,1.19-.14,2.36-.25,3.52s-.24,2.19-.41,3.26A61.12,61.12,0,0,1,133,99.41c-.47.76-.95,1.52-1.45,2.26a57.54,57.54,0,0,1-13,13.82c-20.37-1.38-31.62,1.05-31.62,1.05a26,26,0,0,1-10.86.73c-2.82-.31-2.72,1-4.28,0s-5-.21-7.31.1c-2.13.29-4.07.14-6.83.36a56.22,56.22,0,0,1-8.59-6.9l-.59-.58q-1.53-1.55-3-3.21t-2.83-3.6c-.49-.67-1-1.36-1.43-2a.05.05,0,0,1,0,0h0c-.48-.73-1-1.47-1.4-2.22L39.75,99a60.36,60.36,0,0,1-3.37-6.49,62.23,62.23,0,0,1-5.32-25.31c0-24.93,14.45-46.26,34.9-55l.79-.33.93-.37c.53-.2,1.07-.4,1.6-.58A52.17,52.17,0,0,1,82.92,8.17c1.19-.08,2.38-.12,3.59-.12A52.25,52.25,0,0,1,107,12.23c.65.28,1.31.57,2,.87,19.07,9,32.48,29.19,33,52.75C142,66.3,142,66.75,142,67.21Z"/><path class="cls-7" d="M149.43,128.76c3.43.39,4.2-.34,7-2.26a2.27,2.27,0,0,0,.11-3.79c-3.42-2.62-13.59-6.38-43.69-7.4-39.86-1.35-56.7,1.93-61.06,3a1.54,1.54,0,0,0-1.25,1.38v.16a1.31,1.31,0,0,0,.18.72c2-1.14,11.69-5.14,49.54-4.71a135.84,135.84,0,0,1,15.52,1,43.9,43.9,0,0,1,6.63,1.11h0a47.44,47.44,0,0,1,9.53,3c2.37,1.06,4.51,2.54,6.81,3.72,1.73.88,3.49,1.69,5.29,2.41A21.16,21.16,0,0,0,149.43,128.76Z"/><path d="M151,129.07a14.34,14.34,0,0,1-1.61-.11h0a18.56,18.56,0,0,1-4.91-1.49l-.51-.2c-1.8-.73-3.58-1.54-5.3-2.43-1-.49-1.91-1-2.83-1.58a43.1,43.1,0,0,0-4-2.13,47,47,0,0,0-9.5-2.95h0a44.62,44.62,0,0,0-6.59-1.1,134.61,134.61,0,0,0-15.51-1c-37.55-.43-47.33,3.47-49.43,4.68l-.18.11-.11-.18a1.56,1.56,0,0,1-.21-.83v-.16a1.74,1.74,0,0,1,1.4-1.59c4.23-1.05,21.14-4.37,61.12-3,13.4.46,24.13,1.5,31.88,3.11,5.7,1.18,9.71,2.63,11.93,4.33a2.58,2.58,0,0,1,1,2.09,2.55,2.55,0,0,1-1.17,2L156,127C154.05,128.4,153.08,129.07,151,129.07Zm-28.55-11.3h0a47.17,47.17,0,0,1,9.58,3,42.67,42.67,0,0,1,4,2.15c.91.54,1.86,1.09,2.81,1.57,1.71.88,3.48,1.69,5.26,2.41l.51.2a18.6,18.6,0,0,0,4.8,1.47h0c3.13.36,3.94-.2,6.34-1.86l.54-.36a2.18,2.18,0,0,0,1-1.71,2.16,2.16,0,0,0-.89-1.75c-2.17-1.66-6.12-3.09-11.75-4.25-7.73-1.61-18.43-2.65-31.82-3.1-6.59-.22-12.55-.32-17.93-.32-27.22,0-39.55,2.45-43.07,3.33a1.33,1.33,0,0,0-1.09,1.19v.16a1,1,0,0,0,.07.42c2.37-1.26,11.77-4.66,43.85-4.66l5.59,0a137.19,137.19,0,0,1,15.55,1,42.91,42.91,0,0,1,6.65,1.11Z"/><path class="cls-7" d="M202.73,155.14V301.7a8.92,8.92,0,0,1-9,8.8H154.34a9,9,0,0,1-8.61-6.12,8.55,8.55,0,0,1-.43-2.68V140.81a10,10,0,0,1,.06-1.11h0a8.1,8.1,0,0,1,.13-.86,9.26,9.26,0,0,1,.46-1.66,10.3,10.3,0,0,1,.81-1.71,11.09,11.09,0,0,1,9.58-5.41H177a26.06,26.06,0,0,1,16,5.41,25.41,25.41,0,0,1,5.16,5.35c.39.54.75,1.1,1.1,1.67a24.57,24.57,0,0,1,2.75,6.58c.14.55.26,1.1.36,1.67a24.26,24.26,0,0,1,.39,3.84C202.73,154.76,202.73,155,202.73,155.14Z"/><path d="M193.69,310.71H154.34a9.2,9.2,0,0,1-8.81-6.27,8.78,8.78,0,0,1-.44-2.74V140.81a10.51,10.51,0,0,1,.06-1.12v0c0-.28.08-.57.13-.87a11.16,11.16,0,0,1,.47-1.69,10.75,10.75,0,0,1,.83-1.75,11.33,11.33,0,0,1,9.76-5.51H177a26.15,26.15,0,0,1,16.1,5.45,25.64,25.64,0,0,1,5.21,5.4c.39.54.77,1.11,1.11,1.68a25.22,25.22,0,0,1,1.48,2.88,24.78,24.78,0,0,1,1.29,3.75c.14.57.27,1.13.37,1.69a24.88,24.88,0,0,1,.39,3.87c0,.19,0,.38,0,.57V301.7A9.14,9.14,0,0,1,193.69,310.71Zm-48.12-171h0a10,10,0,0,0-.06,1.09V301.7a8.24,8.24,0,0,0,.42,2.61,8.77,8.77,0,0,0,8.41,6h39.35a8.72,8.72,0,0,0,8.83-8.59V155.14c0-.19,0-.37,0-.56a23.1,23.1,0,0,0-.38-3.81c-.1-.54-.22-1.1-.36-1.65a24.49,24.49,0,0,0-1.27-3.7A25.91,25.91,0,0,0,199,142.6c-.34-.56-.7-1.12-1.09-1.66a25.26,25.26,0,0,0-5.12-5.31A25.77,25.77,0,0,0,177,130.27H156.34a10.89,10.89,0,0,0-9.4,5.31,9.83,9.83,0,0,0-.8,1.67,10.37,10.37,0,0,0-.45,1.63C145.64,139.16,145.6,139.44,145.57,139.71Z"/><circle class="cls-6" cx="165.28" cy="176.46" r="12.03"/><path d="M165.28,188.69a12.24,12.24,0,1,1,12.24-12.23A12.25,12.25,0,0,1,165.28,188.69Zm0-24.05a11.82,11.82,0,1,0,11.82,11.82A11.83,11.83,0,0,0,165.28,164.64Z"/><path class="cls-7" d="M37,98.53s-13.36,1.15-10.54,4.67l13.81,17a6.13,6.13,0,0,1,1.1,2.08c.43,1.49,1.33,4,2.42,4.14a14.51,14.51,0,0,0,3.24,0s-.94-3.63,1-3.74l-.34-.27a2,2,0,0,1-.58-2.25L51.63,109Z"/><path d="M45.34,126.76a10.77,10.77,0,0,1-1.57-.1c-1.15-.15-2-2.41-2.59-4.28a5.8,5.8,0,0,0-1.06-2l-13.82-17a1.53,1.53,0,0,1-.33-1.59c1.09-2.54,10.62-3.4,11-3.43h.08l.06,0,14.76,10.53-4.54,11.39a1.75,1.75,0,0,0,.52,2l.77.62-.55,0a.94.94,0,0,0-.74.38c-.66.91-.12,3.07-.11,3.09l.06.23-.24,0A13.31,13.31,0,0,1,45.34,126.76ZM37,98.74c-2.74.25-9.78,1.27-10.59,3.17a1.08,1.08,0,0,0,.27,1.16l13.81,17a6.15,6.15,0,0,1,1.14,2.16c.7,2.39,1.54,3.88,2.25,4a13.75,13.75,0,0,0,3,0c-.13-.62-.41-2.32.24-3.2a1.21,1.21,0,0,1,.59-.46,2.17,2.17,0,0,1-.65-2.48L51.38,109Z"/><rect class="cls-6" x="153.34" y="270.65" width="41.34" height="18.19"/><path d="M194.89,289.05H153.14V270.44h41.75Zm-41.34-.42h40.93V270.86H153.55Z"/><rect class="cls-8" x="136.27" y="197.58" width="25.74" height="9.61"/><path d="M162.21,207.39H136.06v-10h26.15ZM136.47,207H161.8v-9.19H136.47Z"/><path class="cls-1" d="M153.54,196.2H149a3,3,0,0,0-3,3v6.42a3,3,0,0,0,3,3h4.58a3,3,0,0,0,3-3v-6.42A3,3,0,0,0,153.54,196.2Zm1.23,7.32a3,3,0,0,1-3,3h-1.08a3,3,0,0,1-3-3v-2.28a3,3,0,0,1,3-3h1.08a3,3,0,0,1,3,3Z"/><path class="cls-2" d="M153.54,208.77H149a3.26,3.26,0,0,1-1.16-.21,3.19,3.19,0,0,1-2-3v-6.42a3.16,3.16,0,0,1,2-2.95A3.07,3.07,0,0,1,149,196h4.58a3.19,3.19,0,0,1,3.19,3.17v6.42A3.19,3.19,0,0,1,153.54,208.77ZM149,196.41a2.67,2.67,0,0,0-1,.19,2.74,2.74,0,0,0-1.76,2.56v6.42a2.77,2.77,0,0,0,1.76,2.59,2.87,2.87,0,0,0,1,.18h4.58a2.77,2.77,0,0,0,2.77-2.77v-6.42a2.77,2.77,0,0,0-2.77-2.75Zm2.83,10.31h-1.08a3.2,3.2,0,0,1-3.19-3.2v-2.28a3.19,3.19,0,0,1,3.19-3.19h1.08a3.19,3.19,0,0,1,3.19,3.19v2.28A3.2,3.2,0,0,1,151.79,206.72Zm-1.08-8.26a2.78,2.78,0,0,0-2.77,2.78v2.28a2.78,2.78,0,0,0,2.77,2.78h1.08a2.78,2.78,0,0,0,2.77-2.78v-2.28a2.78,2.78,0,0,0-2.77-2.78Z"/><rect class="cls-8" x="136.27" y="248.33" width="25.74" height="9.61"/><path d="M162.21,258.14H136.06v-10h26.15Zm-25.74-.42H161.8v-9.19H136.47Z"/><path class="cls-1" d="M153.54,247H149a3,3,0,0,0-3,3v6.42a3,3,0,0,0,3,3h4.58a3,3,0,0,0,3-3v-6.42A3,3,0,0,0,153.54,247Zm1.23,7.32a3,3,0,0,1-3,3h-1.08a3,3,0,0,1-3-3V252a3,3,0,0,1,3-3h1.08a3,3,0,0,1,3,3Z"/><path class="cls-2" d="M153.54,259.52H149a3.07,3.07,0,0,1-1.16-.22,3.17,3.17,0,0,1-2-3v-6.42a3.15,3.15,0,0,1,2-2.95,3.07,3.07,0,0,1,1.16-.22h4.58a3.19,3.19,0,0,1,3.19,3.17v6.42A3.19,3.19,0,0,1,153.54,259.52ZM149,247.16a2.87,2.87,0,0,0-1,.18,2.76,2.76,0,0,0-1.76,2.57v6.42a2.74,2.74,0,0,0,1.76,2.58,2.67,2.67,0,0,0,1,.19h4.58a2.77,2.77,0,0,0,2.77-2.77v-6.42a2.77,2.77,0,0,0-2.77-2.75Zm2.83,10.3h-1.08a3.19,3.19,0,0,1-3.19-3.19V252a3.2,3.2,0,0,1,3.19-3.2h1.08A3.2,3.2,0,0,1,155,252v2.28A3.19,3.19,0,0,1,151.79,257.46Zm-1.08-8.25a2.78,2.78,0,0,0-2.77,2.78v2.28a2.78,2.78,0,0,0,2.77,2.78h1.08a2.78,2.78,0,0,0,2.77-2.78V252a2.78,2.78,0,0,0-2.77-2.78Z"/><ellipse cx="23.05" cy="306.77" rx="4.02" ry="3.09" transform="translate(-284.54 301.47) rotate(-84.72)"/><ellipse cx="25.15" cy="284" rx="4.02" ry="3.09" transform="translate(-259.96 282.89) rotate(-84.72)"/><path class="cls-6" d="M10.65,268.79c-.11-.22-4.09,2.26-4.44,2.4a7.53,7.53,0,0,0-4.92,5.75c-.79,3-.44,6.27-.47,9.4,0,3.3-1.14,6.43-.29,9.72A13.12,13.12,0,0,0,7.29,304c3.46,1.83,7.1,1.91,10.78,2.83,3.91,1,7.27,3.44,11.32,3.72,4.45.32,9.7.32,14.14.32,6.71,0,27.58,0,31.6-.21l2-11.8c0,.11-20.7.31-22.65.21a61.09,61.09,0,0,1-10.88-1.27c-3.53-.83-7.07-2-10.74-1.75-2.75.17-5.5.71-8.26.33-5.24-.71-8.61-4.49-10.42-9.06a9,9,0,0,1-1.06-4c.15-1.73,1.22-3.42,2-4.94Z"/><path d="M47.88,311.08H43.53c-4.31,0-9.67,0-14.15-.32a21,21,0,0,1-6.78-2A30.19,30.19,0,0,0,18,307c-1.16-.29-2.34-.5-3.48-.71a24,24,0,0,1-7.35-2.15,13.28,13.28,0,0,1-6.87-8.07,16.49,16.49,0,0,1,0-6.3,28.32,28.32,0,0,0,.31-3.47c0-.77,0-1.56,0-2.33a25.8,25.8,0,0,1,.51-7.13,7.69,7.69,0,0,1,5-5.88c.09,0,.6-.34,1.14-.66,2.7-1.59,3.2-1.83,3.42-1.77a.24.24,0,0,1,.14.12h0s0,0,4.51,9.61l0,.1-.05.09c-.13.26-.28.53-.43.81a11.07,11.07,0,0,0-1.54,4.05,6.93,6.93,0,0,0,.78,3.26c.09.21.18.42.26.63,2,5.14,5.68,8.31,10.26,8.94a25.17,25.17,0,0,0,5.82-.13c.78-.08,1.6-.16,2.4-.21a29.68,29.68,0,0,1,8.86,1.28c.64.16,1.29.33,1.94.48a60.7,60.7,0,0,0,10.84,1.26c1.79.09,20.62-.07,22.46-.19l.19-1.08.22,1.33,0,0-2,11.91h-.17C71.77,311.06,56.85,311.08,47.88,311.08Zm-4.35-.42h2c8.3,0,25.42,0,29.43-.2l2-11.37c-.4,0-1.24,0-3,.07s-4.53.07-7.33.09c-5.27.05-11,.08-12,0A61.82,61.82,0,0,1,43.58,298l-1.94-.47a29,29,0,0,0-8.74-1.27c-.79.05-1.6.13-2.38.21a25.45,25.45,0,0,1-5.92.12A11.92,11.92,0,0,1,18,293.45a16.46,16.46,0,0,1-4-6.06c-.08-.21-.16-.41-.25-.62a7.47,7.47,0,0,1-.82-3.46,11.55,11.55,0,0,1,1.6-4.21l.37-.71L10.52,269c-.48.18-2.12,1.15-3,1.69-.7.42-1.07.64-1.19.69A7.27,7.27,0,0,0,1.5,277a25.24,25.24,0,0,0-.5,7c0,.77,0,1.57,0,2.34a28.78,28.78,0,0,1-.31,3.52,15.72,15.72,0,0,0,0,6.15,12.82,12.82,0,0,0,6.66,7.8,23.47,23.47,0,0,0,7.22,2.11c1.15.21,2.33.42,3.51.71a31.31,31.31,0,0,1,4.64,1.71,20.76,20.76,0,0,0,6.65,2C33.87,310.66,39.23,310.66,43.53,310.66ZM77,298.81v0Z"/><path class="cls-8" d="M38.63,201.56s1.14-19.06,3.25-22.2L33,179.21s-1.39,27.34-.53,29S38.63,201.56,38.63,201.56Z"/><path d="M32.81,208.69h0a.56.56,0,0,1-.5-.34c-.89-1.74.44-28,.5-29.15V179l9.48.16-.22.31c-2,3.06-3.2,21.91-3.21,22.1v.05l0,0C38.06,202.85,34.3,208.69,32.81,208.69Zm.37-29.27c-.39,7.74-1.22,27.39-.53,28.74a.18.18,0,0,0,.15.12h0c1,0,3.94-4.14,5.61-6.79.08-1.29,1.14-18.09,3.1-21.93Z"/><path class="cls-7" d="M166.5,62.38c-.11.53-.74.53-.74.53v0a5.65,5.65,0,0,1-.41,2.25.38.38,0,0,1-.11.14s0,.06,0,.09-.09.31-.12.45a6.41,6.41,0,0,0-.38,2.19,10.27,10.27,0,0,1-.18,2.24s0,.08,0,.12a6.93,6.93,0,0,1-3.35,4.68c-1.15.74-4.49,3.47-4.49,3.47h0c-.21,1.88-1.15,2.19-1.15,2.19V81c.13,2.76,1.66,34.64,1.56,36.15s-2.17,2.09-2.2,2.1c-.28.07-.31,1-.35,1.24-.1.65-.32,1-1.08.78-3.75-1-7.6-1.67-11.42-2.36s-7.93-1.33-11.92-1.82a195.48,195.48,0,0,0-23.2-1.53,128.37,128.37,0,0,0-15.31.77,37.12,37.12,0,0,0-4.69.71,25.87,25.87,0,0,1-10.86.74c-2.82-.32-2.72,1-4.28,0s-5-.21-7.31.1c-2.13.29-4.07.13-6.83.36l-.69.06c-3.14.32-2.93,1.89-4,2.1a12.28,12.28,0,0,0-2.3.74c-.73.31-1.67-.32-2.5.1l-.66.32a2.07,2.07,0,0,1-1.86-.05A9.26,9.26,0,0,1,41.38,117a3.63,3.63,0,0,1,.08-3.09c.72-1.16,2.35-1.33,3.53-1.76,1.71-.61,3.44-1.2,5.18-1.7-.57.06-1.14.14-1.7.23-4.26.66-10.51,2.11-12.4,1.07s-1.86-5.59-1.82-7.77a1.7,1.7,0,0,1,1.16-1.58h0a13.73,13.73,0,0,1,4.62-.63c.24,0,.5,0,.77,0h0l.42,0,.38,0c.42,0,.87-.11,1.34-.19h0a72.56,72.56,0,0,0,12.29-3.73h0c1.27-.48,2.57-1,3.89-1.53,1-.38,1.91-.78,2.88-1.19,5.24-2.21,10.64-4.7,15.5-7C87,83.5,94.34,79.61,94.34,79.61V78.35l-.18.13c-1.82,1.13-8.9,1.13-8.9,1.13L84,65.64l8.46-1.79v-.52a7.54,7.54,0,0,1-3.62-.91,3.53,3.53,0,0,1-2.34-2.58c-.11-.65-.2-1.3-.29-2-.28-2-.52-4.1-.76-6.15-.27-2.27-.53-4.55-.82-6.83-.22-1.71-.43-3.44-.78-5.14,0-.17-.19-1.32-.47-1.32a1.89,1.89,0,0,1-1.47-.84C78.39,26.89,71.16,16,67.68,11.4c-1.16-1.53-1.52-.85-.93.37L66,12.1a6,6,0,0,1-1.59-2.49,2,2,0,0,1,1.29-2.45A25.28,25.28,0,0,1,68.85,6c3.09-1,6.22-2,9.37-2.76l1-.25.69-.17A86.87,86.87,0,0,1,106.33.4l1.91.17c45.57,4.7,56.61,53.14,58.07,60.8C166.44,62,166.5,62.38,166.5,62.38Z"/><path d="M46.66,121.92a2.33,2.33,0,0,1-1.09-.28,9.31,9.31,0,0,1-4.38-4.58,3.89,3.89,0,0,1,.09-3.27,4.41,4.41,0,0,1,2.77-1.58c.31-.08.6-.17.87-.26,1-.36,1.85-.66,2.66-.93l-1.81.32c-4,.71-8.22,1.45-9.8.58-1.79-1-2-5.41-1.93-8a1.89,1.89,0,0,1,1.31-1.77h0a13.43,13.43,0,0,1,4.69-.63l.75,0h0l.4,0,.38,0c.42,0,.86-.11,1.33-.19h0a70.42,70.42,0,0,0,12.19-3.7h0c1.21-.46,2.51-1,3.88-1.53l2.88-1.19c4.62-2,9.83-4.32,15.49-7,8.72-4.17,15.74-7.86,16.7-8.36v-.75c-2,1.07-8.59,1.08-8.87,1.08h-.2L83.78,65.47l8.47-1.79v-.14h0a7.86,7.86,0,0,1-3.48-.93,3.76,3.76,0,0,1-2.45-2.73c-.12-.68-.22-1.37-.3-2-.26-1.87-.48-3.78-.7-5.63l-.16-1.37c-.23-2-.46-4-.72-6l0-.39c-.2-1.56-.4-3.17-.73-4.73a.74.74,0,0,0,0-.12,2.76,2.76,0,0,0-.28-1,2.05,2.05,0,0,1-1.6-.94l0,0v0C77.54,25,68.53,12.86,67.52,11.52c-.51-.66-.76-.77-.83-.79a1.66,1.66,0,0,0,.25.95l.09.2-1.12.47-.1-.1a6.38,6.38,0,0,1-1.65-2.58A2.24,2.24,0,0,1,65.56,7,19.1,19.1,0,0,1,68,6.05l.77-.24c3.12-1,6.28-2,9.38-2.77l1-.25.7-.17A87.25,87.25,0,0,1,106.35.2c.64,0,1.28.1,1.91.17a58.08,58.08,0,0,1,28.19,10.44A66.57,66.57,0,0,1,154,29.75a96.29,96.29,0,0,1,12.53,31.58c.12.65.18,1,.18,1v.07a.88.88,0,0,1-.74.68,5.42,5.42,0,0,1-.43,2.18.76.76,0,0,1-.1.15v0q-.07.24-.12.45a6.61,6.61,0,0,0-.37,2.11v0h0a10.39,10.39,0,0,1-.18,2.28v0a.52.52,0,0,1,0,.11,7.2,7.2,0,0,1-3.44,4.81c-1,.66-3.93,3-4.4,3.39a2.85,2.85,0,0,1-1.13,2.23v.18c.38,8.1,1.64,34.65,1.55,36-.11,1.65-2.16,2.24-2.34,2.29s-.14.36-.19.87c0,.09,0,.16,0,.2a1.24,1.24,0,0,1-.44.9,1.08,1.08,0,0,1-.9,0c-3.3-.9-6.74-1.52-10.06-2.12l-1.35-.24c-3.93-.71-7.93-1.32-11.9-1.81a195.68,195.68,0,0,0-23.18-1.53,127.88,127.88,0,0,0-15.29.77l-.7.08a30.79,30.79,0,0,0-4,.62c-5.63,1.34-8,1.08-10.7.77l-.24,0a5,5,0,0,0-2.43.24,1.79,1.79,0,0,1-1.94-.27c-1.22-.82-3.79-.4-5.86-.06l-1.31.2a31.71,31.71,0,0,1-3.53.21c-1,0-2.07,0-3.3.15l-.69.06a3.79,3.79,0,0,0-3,1.41,1.73,1.73,0,0,1-1,.69,12.25,12.25,0,0,0-2.26.72,2.27,2.27,0,0,1-1.24,0,2,2,0,0,0-1.25.06l-.66.32A2.29,2.29,0,0,1,46.66,121.92Zm3.48-11.69.08.41c-1.49.43-3.08,1-5.16,1.7-.28.1-.58.19-.9.28A4.07,4.07,0,0,0,41.63,114a3.41,3.41,0,0,0-.05,2.9,9,9,0,0,0,4.19,4.37,1.89,1.89,0,0,0,1.67,0l.65-.31a2.3,2.3,0,0,1,1.5-.1,1.94,1.94,0,0,0,1,0,12.11,12.11,0,0,1,2.34-.74,1.3,1.3,0,0,0,.72-.56A4.25,4.25,0,0,1,56.94,118l.69-.06c1.25-.1,2.31-.12,3.33-.15a28.69,28.69,0,0,0,3.49-.21c.4-.05.83-.12,1.29-.2,2.25-.36,4.8-.78,6.16.13a1.39,1.39,0,0,0,1.58.22,5.36,5.36,0,0,1,2.61-.25l.23,0c2.69.31,5,.57,10.56-.75a30,30,0,0,1,4-.63l.69-.08a128.73,128.73,0,0,1,15.34-.78,196.5,196.5,0,0,1,23.23,1.53c4,.5,8,1.11,11.93,1.82l1.34.24c3.34.6,6.78,1.22,10.1,2.13a.74.74,0,0,0,.56,0c.13-.08.2-.27.26-.61,0,0,0-.1,0-.18,0-.6.13-1.14.48-1.24.08,0,2-.52,2-1.91.07-1.09-.75-19.31-1.55-36l0-.48.15,0s.82-.31,1-2h0v-.1l.06,0c.13-.11,3.36-2.74,4.51-3.48a6.67,6.67,0,0,0,3.25-4.54.43.43,0,0,0,0-.11h0a10.1,10.1,0,0,0,.17-2.18,7.36,7.36,0,0,1,.38-2.26c0-.15.08-.3.13-.46a.14.14,0,0,1,0-.06l0-.11.05,0,0-.08a5.31,5.31,0,0,0,.39-2.16h0V62.7h.2s.43,0,.52-.32c0-.11-.07-.45-.17-1-1.78-9.31-12.94-56-57.89-60.62L106.31.61A87.09,87.09,0,0,0,80,3l-.69.16-1,.26c-3.1.78-6.25,1.71-9.36,2.75l-.78.25a18.05,18.05,0,0,0-2.39.9,1.84,1.84,0,0,0-1.18,2.21A5.72,5.72,0,0,0,66,11.85l.46-.19c-.27-.65-.28-1.13,0-1.3s.77.11,1.38.91c1,1.35,10.05,13.48,14.25,26.24a1.68,1.68,0,0,0,1.28.72c.35,0,.51.51.66,1.39,0,.05,0,.08,0,.1.33,1.58.54,3.2.74,4.77l0,.39c.25,2,.49,4,.72,6l.16,1.38c.21,1.84.44,3.75.69,5.61.09.6.18,1.28.3,2,.2,1.2,1,1.8,2.23,2.43a7.25,7.25,0,0,0,3.51.88h.22V64L84.23,65.8l1.22,13.6c1.13,0,7-.12,8.6-1.1a1,1,0,0,0,.15-.11l.35-.3v1.84l-.11.06c-.08,0-7.48,3.95-16.83,8.42-5.67,2.71-10.88,5.08-15.51,7l-2.88,1.2c-1.35.54-2.65,1-3.85,1.51h0l0,0A71.18,71.18,0,0,1,43,101.7h0c-.47.08-.92.15-1.34.19l-.38,0-.43,0h0c-.27,0-.53,0-.77,0h0a13.73,13.73,0,0,0-4.54.61h0a1.47,1.47,0,0,0-1,1.38c0,2,0,6.68,1.71,7.59,1.45.79,5.74,0,9.52-.63,1-.18,1.9-.34,2.75-.47C49,110.37,49.55,110.3,50.14,110.23Z"/><path class="cls-6" d="M34.25,97.17s2,1,2.7,6.26l28.36-6.51-1-8.63Z"/><path d="M36.77,103.69l0-.23c-.65-5.11-2.58-6.09-2.6-6.1l-.48-.24L64.52,88l1,9.07Zm-2.06-6.44c.64.55,1.89,2.09,2.42,5.93l27.95-6.42-.92-8.2Z"/><line class="cls-10" x1="104.52" y1="75.03" x2="104.52" y2="75.03"/><path class="cls-8" d="M78.75,87c-3.17.16-6.35.37-9.52.59-6.44.45-12.87,1-19.28,1.7-4.94.56-10.42.89-15.1,2.7-.86.33-1.66.66-1.78,1.73-.23,1.93.44,5.39,3,5.13,2.09-.21,43.08-7,43.08-7Z"/><path d="M35.8,99.11a2.34,2.34,0,0,1-1.73-.73,6.22,6.22,0,0,1-1.21-4.65c.14-1.21,1.08-1.57,1.92-1.89,4-1.54,8.46-2,12.81-2.46l2.34-.26c5.62-.64,11.56-1.16,19.28-1.7,3.86-.27,6.8-.45,9.53-.59h.2l.43,5.25-.19,0c-1.67.28-41,6.79-43.09,7ZM78.56,87.26c-2.68.13-5.56.32-9.32.58-7.71.54-13.65,1.06-19.27,1.7l-2.34.25c-4.31.45-8.78.92-12.7,2.44-.93.35-1.55.66-1.66,1.55a5.82,5.82,0,0,0,1.1,4.31,2,2,0,0,0,1.68.59c2-.19,39.84-6.46,42.87-7Z"/><rect class="cls-6" x="87.93" y="65.34" width="4.28" height="11.79" transform="matrix(0.98, -0.2, 0.2, 0.98, -12.51, 19.61)"/><path d="M89,77.69l-2.46-12,4.6-1,2.46,12ZM87,66.06l2.29,11.13,3.78-.78L90.81,65.28Z"/><rect class="cls-1" x="29.47" y="208.72" width="3.99" height="9.86" transform="translate(-70.11 23.08) rotate(-19.68)"/><path d="M31.12,219.23l-3.46-9.67,4.15-1.49,3.46,9.68Zm-2.92-9.42,3.17,8.89,3.37-1.21-3.18-8.88Z"/><rect class="cls-1" x="42.7" y="200.47" width="2.11" height="15.19" rx="1.06" transform="translate(-67.51 26.89) rotate(-19.68)"/><path d="M45.54,215.67a.57.57,0,0,1-.25-.06.55.55,0,0,1-.3-.33L40.13,201.7a.59.59,0,0,1,.36-.76l1.27-.45a.58.58,0,0,1,.45,0,.65.65,0,0,1,.31.34l4.85,13.58a.58.58,0,0,1-.36.75l-1.27.46A.64.64,0,0,1,45.54,215.67ZM42,200.87H41.9l-1.27.46a.16.16,0,0,0-.1.22l4.85,13.58a.22.22,0,0,0,.09.1.15.15,0,0,0,.13,0l1.27-.45h0a.18.18,0,0,0,.1-.09.2.2,0,0,0,0-.13L42.12,201a.15.15,0,0,0-.09-.1Z"/><path class="cls-6" d="M54.4,150.73c-4,9.43-6.62,19.55-9.68,29.35a3.89,3.89,0,0,1-3.67,2.71c-10.3.07-12.19-5.3-12.37-8.63a4,4,0,0,0-2.6-3.54c-2.95-1.1-7.32-3-8.28-4.63-.72-1.26.16-3.82.45-5.09.69-3.13,1.61-6.22,2.57-9.28a124.28,124.28,0,0,1,6.34-17.16c.88-1.82,2.52-2.39,4.46-2.58a47,47,0,0,1,11.71.68c3.24.5,6.48,1.11,9.68,1.81,1.77.39,3.42,1.07,4,2.95v0C58.12,141,56,147,54.4,150.73Z"/><path d="M40.83,183c-10.32,0-12.18-5.52-12.36-8.83A3.8,3.8,0,0,0,26,170.81c-3.3-1.22-7.43-3-8.39-4.71-.64-1.12-.14-3.06.23-4.48.07-.28.14-.55.19-.77.72-3.24,1.67-6.38,2.58-9.29A126.45,126.45,0,0,1,27,134.37c1-2.09,3-2.54,4.63-2.7a47.81,47.81,0,0,1,11.76.68c3.24.51,6.5,1.12,9.7,1.82,1.6.35,3.52,1,4.15,3.08v0c1.08,3.56-.83,9.32-2.63,13.52a202.94,202.94,0,0,0-7.36,21.7c-.75,2.51-1.52,5.1-2.31,7.63A4.09,4.09,0,0,1,41.05,183ZM34.59,132a29.13,29.13,0,0,0-3,.14c-2.28.22-3.56,1-4.29,2.46A125.59,125.59,0,0,0,21,151.68c-.91,2.91-1.86,6-2.57,9.26-.05.23-.12.5-.19.78-.33,1.28-.83,3.2-.28,4.17.7,1.23,3.61,2.84,8.18,4.53a4.21,4.21,0,0,1,2.73,3.72c.17,3.16,2,8.44,12,8.44H41A3.64,3.64,0,0,0,44.52,180c.79-2.52,1.56-5.11,2.31-7.62a201,201,0,0,1,7.38-21.75h0c1.44-3.38,3.71-9.6,2.61-13.23v0c-.57-1.85-2.26-2.46-3.84-2.8-3.19-.7-6.45-1.31-9.68-1.81A56.14,56.14,0,0,0,34.59,132Z"/><g class="cls-11"><path class="cls-12" d="M119.16,241a34.52,34.52,0,0,1-13.08-2.35c-4.87-2.15-26-3.83-26.23-3.85l.05-.62c.88.07,21.47,1.7,26.43,3.89,5.21,2.3,13,2.72,17.58,2,5.84-.95,13.79-2,17.47-2v.62a144.33,144.33,0,0,0-17.36,2A30.6,30.6,0,0,1,119.16,241Z"/></g><rect class="cls-1" x="23.75" y="265.76" width="2.3" height="8.98" transform="translate(-89.55 24.17) rotate(-19.68)"/><path d="M25.2,275.13,22,266.28l2.56-.91,3.16,8.84Zm-2.63-8.6,2.89,8.06,1.77-.63-2.89-8.06Z"/><rect class="cls-1" x="33.79" y="259.34" width="2.1" height="12.3" rx="1.05" transform="translate(-99.14 33.65) rotate(-22.55)"/><path d="M36.44,271.66a.61.61,0,0,1-.55-.37l-4.42-10.65a.6.6,0,0,1,.32-.77l1.23-.51a.58.58,0,0,1,.45,0,.56.56,0,0,1,.32.32l4.43,10.65a.59.59,0,0,1-.32.77h0l-1.23.51A.64.64,0,0,1,36.44,271.66Zm-3.19-11.93-.07,0-1.23.51a.16.16,0,0,0-.09.22l4.42,10.65a.19.19,0,0,0,.23.1l1.23-.51a.18.18,0,0,0,.09-.23l-4.42-10.65a.15.15,0,0,0-.1-.09Z"/><path class="cls-1" d="M21.28,263.57l5.5,14.61-13.53,4.57L8.83,270.91s-.85-2.23.82-3.06S21.28,263.57,21.28,263.57Z"/><path d="M13.13,283,8.64,271c-.32-.83-.53-2.59.92-3.32,1.67-.83,11.24-4.15,11.65-4.29l.19-.07,5.65,15Zm8-19.18c-1.39.49-9.89,3.45-11.4,4.2S9,270.75,9,270.83l4.35,11.66,13.13-4.44Z"/><path class="cls-6" d="M202.73,155.14v1.55H145.3v-14.2h53.92a24.57,24.57,0,0,1,2.75,6.58c.14.55.26,1.1.36,1.67a24.26,24.26,0,0,1,.39,3.84C202.73,154.76,202.73,155,202.73,155.14Z"/><path d="M202.94,156.9H145.09V142.28h54.25l.06.1a25.22,25.22,0,0,1,1.48,2.88,24.78,24.78,0,0,1,1.29,3.75c.14.57.27,1.13.37,1.69a24.88,24.88,0,0,1,.39,3.87c0,.19,0,.38,0,.57Zm-57.43-.42h57v-1.34c0-.19,0-.37,0-.56a23.1,23.1,0,0,0-.38-3.81c-.1-.54-.22-1.1-.36-1.65a24.49,24.49,0,0,0-1.27-3.7,24.93,24.93,0,0,0-1.4-2.72H145.51Z"/><path class="cls-13" d="M165,65.14c0,.17-.08.32-.12.46a6.67,6.67,0,0,0-.38,2.24,10.65,10.65,0,0,1-.18,2.28s0,.08,0,.12c-17.07-2.18-52.36,2.94-52.36,2.94l-3.43.6c1.83-1.81,3-5.65,3-5.65S165,65.12,165,65.14Z"/><path class="cls-7" d="M103.58,77l-8.77,3.77-.11,0s0,1.23-.1.63c-.44-5-2.65-29.72-6.84-37.56-4.62-8.65-16.26-31.92-20-37.41l0,0q5.51-1.89,10.61-3.18l1-.26c2,2.67,15.68,21.66,17.07,32.92C98,48,98.66,52.1,103.26,56.19S120.78,67.89,103.58,77Z"/><path d="M94.63,81.78c-.21,0-.22-.23-.24-.36-1-11.06-3.16-30.64-6.82-37.48-1.34-2.53-3.25-6.22-5.46-10.49-5.29-10.26-11.89-23-14.54-26.91l-.15-.22.32-.11C71.33,5,74.91,3.9,78.36,3l1-.26.14,0,.08.11c1.09,1.48,4.95,6.83,8.76,13.25,5,8.35,7.76,15,8.35,19.77C98.26,48.28,98.9,52,103.4,56c.5.45,1.11.94,1.76,1.47,3.25,2.63,7.69,6.23,7.27,10.54-.31,3.19-3.18,6.17-8.76,9.11h0l-8.75,3.76c0,.72-.06.86-.27.87ZM68.07,6.53c2.76,4.16,9.21,16.65,14.42,26.73,2.2,4.27,4.11,8,5.45,10.48,3.6,6.73,5.78,25.57,6.79,36.79l8.76-3.76C108.85,73.94,111.72,71,112,68c.4-4.08-3.94-7.6-7.11-10.17-.65-.53-1.27-1-1.78-1.49-4.59-4.08-5.29-8.15-6.81-20.42-1.37-11.11-15-30.06-16.94-32.71l-.91.22C75.08,4.29,71.59,5.33,68.07,6.53Z"/><path class="cls-13" d="M98.34,73s9.27-2.91,9-7.42-10-5.15-10-5.15Z"/><path class="cls-13" d="M95.38,82.55s26.49-12.4,60-1.93c0,0,.62.12,1.14-2.19,0,0-27.84-12.4-62.39,1.92Z"/><path class="cls-7" d="M92,79.64l2.81-1.16L97,83.54S91.07,85.87,88.8,87,52.34,107.5,37.34,108l-.77-6.13S56.55,99,92,79.64Z"/><path d="M37.16,108.24l-.83-6.52.21,0a95,95,0,0,0,14.4-3.88c8.6-2.87,22.69-8.39,41-18.36h0l3-1.24,2.32,5.45-.2.08c-.06,0-6,2.33-8.18,3.47l-1.29.7c-30.19,16.4-44,20.11-50.26,20.33Zm-.36-6.17.73,5.74c6.3-.28,20.06-4.07,49.88-20.27l1.3-.7c2-1,7-3,8-3.41l-2-4.68-2.6,1.08c-18.34,10-32.46,15.5-41.07,18.38A101.18,101.18,0,0,1,36.8,102.07Z"/><rect class="cls-6" x="87.19" y="38.39" width="5.11" height="22.36" transform="translate(-5.37 11.31) rotate(-7)"/><path d="M88.39,61.21,85.61,38.6l5.48-.67,2.78,22.61ZM86.07,39l2.68,21.78,4.65-.57L90.73,38.39Z"/><path class="cls-7" d="M137.72,128.39a1.43,1.43,0,0,1-1.29-.26c-11-8.28-25.74-10.17-39.1-8.6C84.54,121,71.62,125.25,60,130.61c-2.08.95-3.7,1.76-4.77,2.31L55,133a1.55,1.55,0,0,1-.69.16,1.47,1.47,0,0,1-1.28-.73.1.1,0,0,0,0-.05,1.48,1.48,0,0,0-1-.66c-10.29-1.72-5.82-8.88-5.82-8.88l1.56-2.73a1.5,1.5,0,0,1,.54-.55l.08,0c2-1.14,11.8-5.15,50-4.71a136.4,136.4,0,0,1,15.67,1c2.45.31,4.67.68,6.68,1.1h0c7.83,1.64,12.52,4,15.31,6.4a15.77,15.77,0,0,1,1.17,1.09,12.3,12.3,0,0,1,1.37,1.7A1.48,1.48,0,0,1,137.72,128.39Z"/><path d="M54.32,133.4a1.7,1.7,0,0,1-1.46-.83l0,0A1.31,1.31,0,0,0,52,132c-3.49-.58-5.7-1.85-6.57-3.77-1.15-2.56.53-5.3.6-5.42L47.56,120a1.81,1.81,0,0,1,.61-.62l.08,0c2-1.16,11.1-4.78,44.45-4.78,1.81,0,3.69,0,5.64,0a137.47,137.47,0,0,1,15.69,1c2.38.3,4.64.68,6.71,1.11h0c6.85,1.45,12,3.62,15.4,6.46a13.81,13.81,0,0,1,1.18,1.1,13,13,0,0,1,1.4,1.72,1.67,1.67,0,0,1,.2,1.51,1.78,1.78,0,0,1-1.16,1.08h0a1.66,1.66,0,0,1-1.48-.29c-13.14-9.89-30-9.61-38.94-8.56-11.65,1.37-24.54,5.2-37.29,11.06-2.12,1-3.76,1.79-4.76,2.31l-.21.1A1.64,1.64,0,0,1,54.32,133.4ZM92.67,115c-33.22,0-42.2,3.57-44.21,4.72l-.08,0a1.27,1.27,0,0,0-.46.46L46.36,123s-1.64,2.68-.58,5c.81,1.78,2.91,3,6.25,3.52a1.71,1.71,0,0,1,1.15.75l0,.06a1.32,1.32,0,0,0,1.11.64,1.23,1.23,0,0,0,.59-.15l.21-.11c1-.51,2.65-1.34,4.77-2.31,12.79-5.88,25.73-9.72,37.42-11.09,9-1.06,26-1.34,39.24,8.63a1.23,1.23,0,0,0,1.11.23h0a1.34,1.34,0,0,0,.89-.83,1.22,1.22,0,0,0-.16-1.13,12.76,12.76,0,0,0-1.35-1.66,14.91,14.91,0,0,0-1.15-1.08c-3.31-2.79-8.43-4.93-15.23-6.36l0-.21,0,.21c-2.06-.43-4.3-.8-6.67-1.1a138.87,138.87,0,0,0-15.64-1Z"/><path class="cls-13" d="M116.84,8.62s26.84,4,30.08,21.2C146.92,29.82,117.16,25,116.84,8.62Z"/><path class="cls-13" d="M101.39,131.84s-29.24,34.35-31.75,33.93S62.75,141.44,101.39,131.84Z"/><path class="cls-14" d="M52.52,145s-8,33.73-20.36,24.54,7.41-8.56,10.13-15.35S52.52,145,52.52,145Z"/><path class="cls-14" d="M190.25,154s-30.39-6.89-39.68-1.88S190.25,154,190.25,154Z"/><path class="cls-13" d="M118.62,106.36s23,10.65,22,0-4.8-13.37-15-11.8-25.79,3.65-22.76,8S118.62,106.36,118.62,106.36Z"/><path class="cls-15" d="M163.94,167.44s12.84,4.81,7.62,15.25C171.56,182.69,185,169.74,163.94,167.44Z"/><path class="cls-14" d="M157.57,285.65s22.45-13.37,31.85-5.95C189.42,279.7,173.44,263.83,157.57,285.65Z"/><path class="cls-14" d="M25.89,305.59s31.22-8.56,42.81,0C68.7,305.59,32.89,312.38,25.89,305.59Z"/><path class="cls-14" d="M61.15,294.81s-.4,3.12,5.84,0S54.28,263,51.52,270.65s9.87,10.17,9.63,14S61.15,294.81,61.15,294.81Z"/><path class="cls-14" d="M19.73,246.18s-2.4-20.57,7.1-13,6.68,9.71,6.68,9.71S23.07,227.07,19.73,246.18Z"/><path class="cls-13" d="M65.39,260.54s15.38-7.23,10-17.29-11-29.31-19.6-24.8-5.47,18.82-5.47,18.82,10.93,3.12,13,13.18S65.39,260.54,65.39,260.54Z"/><path class="cls-13" d="M132.72,241.69c2.81,9.4,5.74-2.83,5.74-2.83s-2.72-32.68-1.05-38.52"/><path class="cls-7" d="M113,138.87s10.16-3.28,15.47,10.75a7.53,7.53,0,0,0,2,2.89c3.37,3.07,11.79,11.53,12.13,19.79.43,10.34-6.06,35.29-3.09,44.69,2.28,7.18,2,25.83,1.66,34.23a19.43,19.43,0,0,0,1.16,7.24,21.09,21.09,0,0,1,1.41,9.19c-.23,2.42-1.53,4.47-2.49,6.65a66,66,0,0,0-2.3,7.53c-.9,3-1.19,6.18-2.49,9.05-1.05,2.32-2.21,4.59-3.25,6.91a62.55,62.55,0,0,0-2.88,7.35,18.23,18.23,0,0,0-.78,3.29,2.51,2.51,0,0,1-2.49,2.23H69.38q2.15-4.05,4.13-8.2c2.12-4.39,5.51-9.75,5.4-14.75-.06-2.7-1.22-5.23-1.93-7.84a24.7,24.7,0,0,1,3.46-19.94c3.37-5.06,3.28-9.4.86-15.06-1.45-3.37-3.13-8.06-.91-11.45a14.17,14.17,0,0,0,1.54-2.52c.83-2.12-.28-4.85-.91-6.91a35,35,0,0,0-3-7.21c-3.07-5.4-9.41-13.81-.13-49.32a5.93,5.93,0,0,0,.16-.82c.19-1.68,1.65-9.21,12.91-15.23a8.1,8.1,0,0,0,2.39-1.92C96.19,146.14,104.88,137,113,138.87Z"/><path d="M127,310.87H69l.16-.31c1.33-2.5,2.68-5.18,4.13-8.19.41-.83.85-1.68,1.31-2.59,2-3.78,4.16-8.06,4.07-12.06a19.38,19.38,0,0,0-1.22-5.5c-.24-.75-.49-1.52-.7-2.29a23.93,23.93,0,0,1-.41-10.43,25.74,25.74,0,0,1,3.89-9.68c3.16-4.74,3.4-8.91.85-14.87-1.67-3.88-3.08-8.31-.89-11.64.14-.22.29-.43.43-.64a9.29,9.29,0,0,0,1.09-1.84c.68-1.76,0-4-.64-5.9l-.28-.88a35.17,35.17,0,0,0-3-7.16c-.14-.25-.29-.51-.45-.77-3.2-5.52-8.57-14.76.3-48.72a5.49,5.49,0,0,0,.15-.79,14.82,14.82,0,0,1,2.34-6.07,27.63,27.63,0,0,1,10.68-9.31,8.39,8.39,0,0,0,2.34-1.87,44,44,0,0,1,7.89-7.32c4.38-3,8.38-4.19,11.92-3.39a11,11,0,0,1,5.81.13,12.34,12.34,0,0,1,5.16,3.09,21.12,21.12,0,0,1,4.71,7.67,7.18,7.18,0,0,0,1.91,2.82c3.55,3.23,11.86,11.65,12.2,19.93.17,4.15-.77,10.64-1.76,17.5-1.46,10.1-3.11,21.54-1.34,27.14,2.31,7.28,1.94,26.41,1.67,34.29a19.13,19.13,0,0,0,1.15,7.17,21.37,21.37,0,0,1,1.42,9.28,15.23,15.23,0,0,1-1.77,5.14c-.25.52-.51,1.05-.74,1.58a35.19,35.19,0,0,0-1.61,5c-.21.82-.43,1.66-.68,2.47-.34,1.12-.59,2.29-.84,3.42a29.21,29.21,0,0,1-1.66,5.65c-.51,1.11-1,2.23-1.56,3.31s-1.15,2.39-1.69,3.59a64.4,64.4,0,0,0-2.87,7.33l0,.09a17.21,17.21,0,0,0-.74,3.16A2.71,2.71,0,0,1,127,310.87Zm-57.3-.42H127a2.29,2.29,0,0,0,2.28-2,18.34,18.34,0,0,1,.76-3.24l0-.09A63.82,63.82,0,0,1,133,297.7c.54-1.21,1.12-2.42,1.69-3.6s1-2.19,1.56-3.3a28,28,0,0,0,1.63-5.57c.25-1.14.51-2.32.85-3.46.24-.8.46-1.63.68-2.44a34.11,34.11,0,0,1,1.63-5.11c.23-.54.49-1.07.75-1.59a15,15,0,0,0,1.72-5,20.86,20.86,0,0,0-1.39-9.1,19.32,19.32,0,0,1-1.17-7.32c.26-7.87.63-26.94-1.65-34.15-1.81-5.69-.15-17.19,1.32-27.33,1-6.84,1.92-13.31,1.75-17.42-.33-8.13-8.55-16.45-12.06-19.64a7.76,7.76,0,0,1-2-3c-2.14-5.67-5.46-9.3-9.59-10.51a10.51,10.51,0,0,0-5.62-.11l0,0-.06,0c-3.43-.8-7.34.32-11.64,3.31a44.29,44.29,0,0,0-7.82,7.25,8.49,8.49,0,0,1-2.46,2,27.32,27.32,0,0,0-10.52,9.16,14.32,14.32,0,0,0-2.27,5.9,8.46,8.46,0,0,1-.16.85c-8.84,33.79-3.52,42.93-.35,48.4.16.26.31.52.45.77a34.94,34.94,0,0,1,3,7.25c.09.28.18.57.28.87.61,1.91,1.37,4.28.62,6.18A9.26,9.26,0,0,1,81,232.91c-.15.2-.29.42-.43.63-2.08,3.17-.7,7.46.92,11.25a18.09,18.09,0,0,1,1.76,7.85,14.08,14.08,0,0,1-2.64,7.41,24.63,24.63,0,0,0-3.43,19.77c.21.76.46,1.52.7,2.27a20,20,0,0,1,1.24,5.62C79.21,291.82,77,296.15,75,300c-.46.9-.9,1.76-1.3,2.58C72.31,305.45,71,308,69.73,310.45Z"/><g class="cls-16"><path class="cls-13" d="M202.36,157s-25.16,70.14.11,142.85Z"/></g><g class="cls-17"><path class="cls-13" d="M74.76,205a34.11,34.11,0,0,1,10.86,15.24c3.34,9.76-2.5,21.51,2.19,27.53s-5.53,30-2.19,35.85S80,310.4,80,310.4l-9.41-.16,8.71-17.87s1.37-1.33.88-6.54c0,0-5.2-11.34-1.86-18.71s5.15-10.75,5.15-10.75,2-1.23-.61-10.93c0,0-5.45-8.94-.14-13.73,0,0,2.7-.11-1.58-11Z"/></g><g class="cls-18"><path class="cls-13" d="M142.81,263.53s-21.79,3.73-26.38,21.79-3.75,25-3.75,25l15.13.11s-.21-6.6,7.83-19.86l4.29-15.43S144.13,269,142.81,263.53Z"/></g><path class="cls-13" d="M137.77,248c-3.36,8.09-2.09-62.29-2.09-62.29,1.82-5.16,2.55,25.14,2.55,25.14S140.86,240.6,137.77,248Z"/><g class="cls-19"><path class="cls-13" d="M112.93,118.89a300.23,300.23,0,0,1,4.35,43c.33,21.13,2.33,46.22,1.43,55.9s-1.91,19.37-2.43,34.67-.62,15.1-1,28c-.3,9.76-4.93,30.62-4.83,30.24"/></g><path d="M97.52,208.59s15.87-6.37,21.2-6c6.26,0,15.35,2.93,15.35,2.93s-1.78-11.59,2.19-39.89c0,0-11.17-7.94-22.76,3.55,0,0-3.35-2.82-22.14,3.13-.68.22.45,10.07.53,10.91.49,5.46,1.21,10.05,4,14.81C97.59,201.1,97.94,205.15,97.52,208.59Z"/><polygon class="cls-6" points="118.03 188.06 121.68 188.6 122.03 190.35 118.5 190.79 118.03 188.06"/><polyline class="cls-6" points="106.59 189.65 109.92 189.93 110.52 192.16 106.82 193.16 105.06 191.56 106.68 189.58"/><circle class="cls-6" cx="113.48" cy="190.32" r="6.95"/><path class="cls-12" d="M113.68,194.83a55.14,55.14,0,0,1-7,.77,21.41,21.41,0,0,1-4.47-.19,6,6,0,0,1-1.77-.56,2.78,2.78,0,0,1-1.53-2,2.75,2.75,0,0,1,.75-2.37,5.83,5.83,0,0,1,1.46-1.14,19.65,19.65,0,0,1,3.51-1.54,8.78,8.78,0,0,1,1.07-2.43l0-.06,0-.07a14.44,14.44,0,0,1,1.89-2.1,9.3,9.3,0,0,1,2.71-1.52,9.19,9.19,0,0,1,10.16,2.87c.1.13.2.25.29.38a19.08,19.08,0,0,1,3.78.21,6.53,6.53,0,0,1,1.79.55,2.67,2.67,0,0,1,.78,4.36,6.16,6.16,0,0,1-1.47,1.15,22.2,22.2,0,0,1-4.2,1.76,55.47,55.47,0,0,1-7.28,1.78Zm-7.58-3.23.46,0a51.9,51.9,0,0,0,7-.82,51.14,51.14,0,0,0,6.76-1.65l.53-.18-.48,0a2.45,2.45,0,0,1-2.44-1.21,5.29,5.29,0,0,0-.46-.67,5.14,5.14,0,0,0-5.7-1.61,5.07,5.07,0,0,0-1.52.85,11,11,0,0,0-1.15,1.32,5.19,5.19,0,0,0-.68,1.83,2.47,2.47,0,0,1-2,2h0Zm14-4.65Z"/><path class="cls-7" d="M124.87,185.88s5.93,2.75-1.48,5.29C123.39,191.17,129.87,189.11,124.87,185.88Z"/><path class="cls-7" d="M100.87,192.17s-.32,3.71,10.32,1.46C111.19,193.63,104.29,195.13,100.87,192.17Z"/><path class="cls-8" d="M112.84,185.93s3-.15,4.22,2.35C117.06,188.28,116.83,185.09,112.84,185.93Z"/><path class="cls-8" d="M109.17,190.62a27.23,27.23,0,0,0,8.12-1.35A14.94,14.94,0,0,1,109.17,190.62Z"/><path class="cls-7" d="M115,182.54a8.59,8.59,0,0,0-8.91,4.34A7.22,7.22,0,0,1,115,182.54Z"/><path class="cls-8" d="M117.84,194.38a4.45,4.45,0,0,1-4,2.07S117.32,197.12,117.84,194.38Z"/><polygon class="cls-9" points="113.68 171.99 114.24 173.71 116.05 173.71 114.59 174.77 115.14 176.49 113.68 175.43 112.22 176.49 112.78 174.77 111.32 173.71 113.12 173.71 113.68 171.99"/><polygon class="cls-9" points="99.73 178.78 100.29 180.5 102.1 180.5 100.63 181.56 101.19 183.28 99.73 182.22 98.27 183.28 98.83 181.56 97.36 180.5 99.17 180.5 99.73 178.78"/><polygon class="cls-9" points="127.89 178.78 128.45 180.5 130.25 180.5 128.79 181.56 129.35 183.28 127.89 182.22 126.42 183.28 126.98 181.56 125.52 180.5 127.33 180.5 127.89 178.78"/><path class="cls-1" d="M9.5,213.54l15-4.86c2.42-.58,4.23.19,5.09,2.53L31,215.27a9.49,9.49,0,0,1,.61,2.22,4,4,0,0,1-1.34,3.44c-1.18,1-3,1.38-4.46,1.87-2.32.8-4.66,1.54-7,2.25l-2.74.82a7,7,0,0,1-3.86.5,3.44,3.44,0,0,1-2.44-2.11Q8.61,221.2,7.71,218A3.63,3.63,0,0,1,9.5,213.54Z"/><path d="M13.23,226.7a4.29,4.29,0,0,1-1-.13,3.61,3.61,0,0,1-2.58-2.24c-.8-2-1.5-4.14-2.1-6.24a3.83,3.83,0,0,1,1.91-4.74h0l15-4.87c2.62-.64,4.47.28,5.34,2.66l1.48,4.06a9.58,9.58,0,0,1,.63,2.26,4.2,4.2,0,0,1-1.42,3.63,10.7,10.7,0,0,1-3.55,1.59c-.34.11-.67.21-1,.32-2.45.85-4.93,1.61-7,2.25l-2.74.82-.43.13A8.42,8.42,0,0,1,13.23,226.7Zm-3.65-13A3.41,3.41,0,0,0,7.92,218c.59,2.1,1.29,4.18,2.08,6.21a3.22,3.22,0,0,0,2.29,2,6,6,0,0,0,3.32-.37l.43-.13,2.74-.82c2.09-.64,4.56-1.4,7-2.25l1-.32a10.43,10.43,0,0,0,3.42-1.52,3.77,3.77,0,0,0,1.27-3.25,9.51,9.51,0,0,0-.61-2.16l-1.49-4.07c-.79-2.17-2.42-3-4.83-2.4Z"/><path class="cls-8" d="M40.62,202.06l4.62,12.32c.58,2,0,3.55-2,4.34l-3.37,1.39a8.66,8.66,0,0,1-1.85.59,3.38,3.38,0,0,1-2.94-1c-1.1-1.23-1.61-3.32-2.19-4.82-.85-2.21-1.64-4.45-2.41-6.69-.66-1.91-1.3-4.48,1.07-5.51,1.69-.74,3.42-1.39,5.17-2A3.05,3.05,0,0,1,40.62,202.06Z"/><path d="M37.58,221A3.58,3.58,0,0,1,35,219.84a11.27,11.27,0,0,1-1.83-3.78c-.14-.39-.26-.76-.39-1.1-.74-1.92-1.48-4-2.42-6.7-.47-1.36-1.58-4.57,1.19-5.77,1.69-.74,3.44-1.4,5.19-2A3.27,3.27,0,0,1,40.8,202v0l4.63,12.34c.63,2.19-.08,3.78-2.07,4.6L40,220.3a8.53,8.53,0,0,1-1.89.61A4.38,4.38,0,0,1,37.58,221ZM38,200.73a3.75,3.75,0,0,0-1.15.19c-1.74.56-3.48,1.22-5.16,2-2.12.93-1.67,3.18-1,5.26.94,2.7,1.68,4.76,2.42,6.68.13.35.26.72.39,1.12a11.14,11.14,0,0,0,1.75,3.63,3.15,3.15,0,0,0,2.76.93,7.72,7.72,0,0,0,1.8-.58l3.37-1.38c1.78-.73,2.4-2.11,1.83-4.08l-4.62-12.31A2.59,2.59,0,0,0,38,200.73Z"/><path class="cls-8" d="M32.23,260.51l4,10.1a2.68,2.68,0,0,1-1.53,3.62L32,275.43a6.64,6.64,0,0,1-1.5.51,2.76,2.76,0,0,1-2.43-.77C27,274,26.47,272,25.92,270.62c-.42-1.06-.83-2.12-1.23-3.19a24.3,24.3,0,0,1-1.17-3.29,2.59,2.59,0,0,1,1.34-3,45,45,0,0,1,4.2-1.71A2.5,2.5,0,0,1,32.23,260.51Z"/><path d="M30,276.19a3,3,0,0,1-2.13-.88,10.59,10.59,0,0,1-1.76-3.54c-.13-.38-.26-.74-.39-1.07-.37-.95-.77-2-1.22-3.2l-.37-.92a14.32,14.32,0,0,1-.81-2.39A2.78,2.78,0,0,1,24.77,261c1.37-.64,2.8-1.21,4.22-1.71a2.7,2.7,0,0,1,3.42,1.14v0l4,10.12a2.86,2.86,0,0,1-1.65,3.87L32,275.62a7.18,7.18,0,0,1-1.54.53A2.7,2.7,0,0,1,30,276.19Zm.11-16.7a3,3,0,0,0-1,.17c-1.41.5-2.82,1.07-4.18,1.7a2.38,2.38,0,0,0-1.22,2.74,13.81,13.81,0,0,0,.79,2.32l.37.94c.45,1.2.84,2.24,1.22,3.18.13.34.26.7.4,1.09A10,10,0,0,0,28.18,275a2.52,2.52,0,0,0,2.24.72,6.42,6.42,0,0,0,1.45-.51L34.6,274A2.47,2.47,0,0,0,36,270.68L32,260.6A2.09,2.09,0,0,0,30.11,259.49Z"/><path class="cls-14" d="M131.37,308.42s1-9.86,5.15-11.88C136.52,296.54,134.41,307.44,131.37,308.42Z"/></g></g></svg>