<svg xmlns="http://www.w3.org/2000/svg" viewBox="0 0 1589.45 880.47"><defs><style>.cls-1{fill:#14ffec;}.cls-2{fill:#45046a;}.cls-3{fill:#30054c;}.cls-4{fill:#18b5a5;}</style></defs><title>Recurso 7</title><g id="Capa_2" data-name="Capa 2"><g id="Capa_1-2" data-name="Capa 1"><polygon class="cls-1" points="1043.45 377.57 1242.38 407.14 1261.57 502.23 1068.98 526.55 1043.45 377.57"/><polyline class="cls-1" points="418.87 464.32 600.85 479.44 633.29 601.19 431.46 656.02 335.42 568.32 424.01 460.55"/><circle class="cls-1" cx="795.26" cy="501.11" r="379.3"/><path class="cls-2" d="M805.83,746.82C671,769.92,540.46,784.53,426.34,789.24c-99.67,4.1-181.88.52-244.34-10.64-39.13-7-70.61-17-96.25-30.46-61.82-32.57-78.92-81-83.62-107s-5.62-77.38,40.92-129.53c19.31-21.63,45.33-42,79.55-62.22,48-28.37,112.3-56.59,191.47-84.06a495.55,495.55,0,0,1,58.59-132.26l2.32-3.68,2.6-3.48c9.77-13.07,60.67-80,103.22-114.51a496.92,496.92,0,0,1,148-82.89C827.53-41.88,1050.46,21,1183.36,185.07q8.1,10,15.71,20.46c82.58-1.9,151.79,1.93,206.26,11.44,39.6,6.91,71.45,16.82,97.36,30.3,62.61,32.56,79.9,81.35,84.62,107.53s5.61,77.9-41.6,130.3c-19.55,21.7-45.91,42.13-80.57,62.46-55.58,32.6-132.57,65-228.85,96.18C1120.12,681.4,982.61,715,838.63,741.05Q822.21,744,805.83,746.82ZM392.07,570.7q12.17-.33,25.24-.87C530.75,565.15,663,549.64,799.6,525c134.44-24.28,262-55.44,369-90.1q15.11-4.91,28.89-9.62-12.64.34-26.28.9a134.7,134.7,0,0,1-133.37-66.33,279.86,279.86,0,0,0-25.08-36.49c-74.49-91.94-199.38-127.21-310.81-87.76A278.05,278.05,0,0,0,619,282c-13.28,10.76-42.44,44.9-62.85,71.76A277.92,277.92,0,0,0,519.09,454,134.41,134.41,0,0,1,410.8,564.41l-.08,0Q401.11,567.61,392.07,570.7ZM1158.55,317h0Z"/><path class="cls-3" d="M1416.59,258.67s323.72,150-80.74,288.7C1335.85,547.37,1689.79,434.65,1416.59,258.67Z"/><path class="cls-3" d="M106.77,601.7s-17.37,202.62,563.45,80C670.22,681.67,293.64,763.55,106.77,601.7Z"/><path class="cls-4" d="M760.21,261.17s166.4-8.25,230.32,128.36C990.53,389.53,978,215.17,760.21,261.17Z"/><path class="cls-4" d="M560.06,517s197.81,5,443.1-73.62C1003.16,443.35,808.08,547.76,560.06,517Z"/><path class="cls-3" d="M876.12,76.39S564,11.22,390.05,313C390.05,313,507.18-16.65,876.12,76.39Z"/><path class="cls-4" d="M1033,722.14s-61.79,114.64-216.3,113.41C816.71,835.55,1004.86,871.73,1033,722.14Z"/></g></g></svg>