<svg xmlns="http://www.w3.org/2000/svg" viewBox="0 0 508.98 908.63"><defs><style>.cls-1{fill:#18b5a5;}.cls-2{fill:#45046a;}.cls-3{opacity:0.3;}.cls-4{fill:#62279b;}.cls-5{fill:#ff5624;}.cls-6{fill:#ff8d32;}.cls-7{fill:#14ffec;}.cls-8{fill:#30054c;}</style></defs><title>Recurso 3</title><g id="Capa_2" data-name="Capa 2"><g id="Capa_3" data-name="Capa 3"><path class="cls-1" d="M325.94,208.15s-122.5,2.4-149.88-13.19C176.06,195,228.9,238.61,325.94,208.15Z"/><path class="cls-2" d="M128.83,395.17a13.82,13.82,0,0,1-18.11,13.15C76.1,397,3.61,360.36.12,252.09-2.48,171.49,36.9,127.79,64.94,107a13.81,13.81,0,0,1,21.89,12.79c-4.92,39.78-5.82,114.75,39.68,184a13.87,13.87,0,0,1,2.32,7.61Z"/><g class="cls-3"><path class="cls-4" d="M114.3,382.26c0,9-6.46,15.38-12.75,12.58C77.17,384,26.12,349,23.66,245.54c-1.83-77,25.9-118.79,45.65-138.64,6.85-6.89,16.47.75,15.42,12.22-3.47,38-4.1,109.67,27.94,175.82a16.78,16.78,0,0,1,1.63,7.27Z"/></g><path class="cls-2" d="M380.15,395.17a13.82,13.82,0,0,0,18.11,13.15c34.62-11.34,107.1-48,110.6-156.23,2.6-80.6-36.78-124.3-64.82-145.07a13.81,13.81,0,0,0-21.9,12.79c4.93,39.78,5.83,114.75-39.67,184a13.87,13.87,0,0,0-2.32,7.61Z"/><g class="cls-3"><path class="cls-4" d="M397.94,382.26c0,9,6,15.38,11.9,12.58C432.6,384,480.23,349,482.53,245.54c1.71-77-24.17-118.79-42.6-138.64-6.39-6.89-15.37.75-14.39,12.22,3.23,38,3.83,109.67-26.08,175.82a17.94,17.94,0,0,0-1.52,7.27Z"/></g><rect class="cls-1" x="250.75" y="815.5" width="16.93" height="59.27" transform="translate(518.43 1690.26) rotate(-180)"/><circle class="cls-2" cx="259.22" cy="887.47" r="21.17"/><path class="cls-5" d="M285.71,150.85a2,2,0,0,0,1.52-.65c4.83-5.26,35.55-41.65,12.08-92.48-3.12-6.25-3.21-13-5.43-19.23a2.44,2.44,0,0,0-2.56-1.74c-1.16.23-1.76,1.5-2.13,2.62-3.06,9.49-1.38,19.76-1.84,29.71-.2,4.1-2.43,12.19-7.85,8.8-3.2-2-4.89-8.23-5.59-11.69-1.35-6.78-1.34-14.17-3.35-20.78-1.93-6.35-8.76-10-9.85-16.38-1.35-7.93-.06-18.92,4.31-25.75a2.08,2.08,0,0,0-2.71-3c-7.5,4.27-18,18-18,61.67,0,0-4.23,12.7-8.47-8.47C232.76,38.21,220.89,34,214.52,32.77a2.11,2.11,0,0,0-2.24,3c4.58,9.12,9.57,20.5,7.31,30.93-1.59,7.34-8.43,13.86-11.78,20.67-10,20.34-9.71,43.31,5.05,61.36.37.45.74.9,1.13,1.34a2.19,2.19,0,0,0,1.64.75Z"/><path class="cls-6" d="M273.74,150.85s8.47-29.63,4.23-38.1-4.23,16.93-8.46,16.93,0-12.7-4.24-12.7-8.46,4.24-8.46,8.47-1.78-18.71-8.47-25.4c-4.48-4.48-3.66,6.55-3.56,8.51.19,3.91.57,7.81.82,11.72.22,3.57,1.18,9-.56,12.26a4.54,4.54,0,0,1-3.77,2.49c-3.41.05-3.79-4.23-4.57-6.69A44.57,44.57,0,0,0,231.4,117c-5.25-7.87,4.24,33.87,4.24,33.87Z"/><path class="cls-2" d="M182.42,189a93.63,93.63,0,0,1-1.57,16.94H328.3A93.63,93.63,0,0,1,326.74,189a92.67,92.67,0,0,1,12.31-46.26v-.3H169.93A92.63,92.63,0,0,1,182.42,189Z"/><path class="cls-7" d="M403,157.2s-135.47,85.63-296.34,0c0,0-56.37,551.14,114.18,668.53a61.23,61.23,0,0,0,72.65-2.06C348.54,780.36,439.17,636.17,403,157.2Z"/><path class="cls-2" d="M144.42,733H364.56a8.47,8.47,0,0,1,0,16.93H144.42a8.47,8.47,0,1,1,0-16.93Z"/><path class="cls-2" d="M129.6,697H379.37a8.47,8.47,0,0,1,0,16.94H129.6a8.47,8.47,0,0,1,0-16.94Z"/><path class="cls-1" d="M183.75,692.73S113.61,318.36,151,227.05C151,227.05,34.11,409.67,183.75,692.73Z"/><path class="cls-2" d="M85.15,438.72H423.82a8.47,8.47,0,1,1,0,16.94H85.15a8.47,8.47,0,1,1,0-16.94Z"/><circle class="cls-8" cx="253.63" cy="565.73" r="71.97"/><circle class="cls-2" cx="253.63" cy="565.73" r="35.98"/><circle class="cls-8" cx="253.63" cy="315.96" r="88.9"/><circle class="cls-2" cx="253.63" cy="315.96" r="44.45"/></g></g></svg>